<svg width="28" height="28" viewBox="0 0 28 28" fill="none" xmlns="http://www.w3.org/2000/svg">
<path d="M8.99917 23.5H19.7196C21.479 23.5 22.5 22.5119 22.5 20.624V11.4931C22.5 9.60515 21.4699 8.61707 19.5008 8.61707H18.2155C18.1699 6.64092 16.4287 5 14.25 5C12.0804 5 10.3301 6.64092 10.2845 8.61707H8.99917C7.03011 8.61707 6 9.60515 6 11.4931V20.624C6 22.5119 7.03011 23.5 8.99917 23.5ZM14.25 6.56152C15.4989 6.56152 16.4196 7.4702 16.4561 8.61707H12.0439C12.0804 7.4702 13.0011 6.56152 14.25 6.56152ZM9.11768 21.7444C8.27901 21.7444 7.81409 21.3209 7.81409 20.4652V11.6519C7.81409 10.805 8.27901 10.3815 9.11768 10.3815H19.3823C20.2119 10.3815 20.6859 10.805 20.6859 11.6519V20.4652C20.6859 21.3209 20.2119 21.7444 19.6011 21.7444H9.11768Z" fill="#1C1C1E"/>
</svg>
