<svg width="28" height="28" viewBox="0 0 28 28" fill="none" xmlns="http://www.w3.org/2000/svg">
<g clip-path="url(#clip0_73_558)">
<path d="M13.9385 22.8125C14.0967 22.8125 14.334 22.751 14.5625 22.6279C19.6074 19.877 21.3652 18.6113 21.3652 15.4121V8.75879C21.3652 7.72168 20.9609 7.35254 20.0908 6.9834C19.1152 6.57031 15.8193 5.41016 14.8525 5.09375C14.5713 4.99707 14.2373 4.93555 13.9385 4.93555C13.6484 4.93555 13.3145 5.01465 13.0244 5.09375C12.0664 5.35742 8.77051 6.5791 7.79492 6.9834C6.9248 7.34375 6.52051 7.72168 6.52051 8.75879V15.4121C6.52051 18.6113 8.27832 19.8682 13.3232 22.6279C13.5518 22.751 13.7891 22.8125 13.9385 22.8125ZM13.9385 20.9668C13.8154 20.9668 13.6836 20.9229 13.4375 20.7646C9.41211 18.3213 8.16406 17.6533 8.16406 15.0781V9.04004C8.16406 8.73242 8.23438 8.60938 8.47168 8.5127C9.77246 7.98535 12.3037 7.15039 13.4814 6.68457C13.6748 6.61426 13.8154 6.58789 13.9385 6.58789C14.0703 6.58789 14.2021 6.61426 14.3955 6.68457C15.582 7.15039 18.0869 8.03809 19.4053 8.5127C19.6514 8.60059 19.7129 8.73242 19.7129 9.04004V15.0781C19.7129 17.6709 18.4209 18.374 14.4482 20.7646C14.1934 20.9229 14.0703 20.9668 13.9385 20.9668ZM12.998 17.583C13.3145 17.583 13.5869 17.4336 13.7715 17.1436L17.709 11C17.8232 10.8154 17.9199 10.6045 17.9199 10.4111C17.9199 9.97168 17.5332 9.68164 17.1201 9.68164C16.8564 9.68164 16.6191 9.83105 16.4434 10.1211L12.9717 15.6934L11.3281 13.6104C11.1172 13.3379 10.9062 13.2412 10.6514 13.2412C10.2207 13.2412 9.87793 13.5928 9.87793 14.0234C9.87793 14.2344 9.95703 14.4277 10.1064 14.6123L12.1807 17.1523C12.4268 17.4512 12.6729 17.583 12.998 17.583Z" fill="#1C1C1E"/>
</g>
<defs>
<clipPath id="clip0_73_558">
<rect width="28" height="28" fill="white"/>
</clipPath>
</defs>
</svg>
