<svg width="30" height="33" viewBox="0 0 30 33" fill="none" xmlns="http://www.w3.org/2000/svg">
<g clip-path="url(#clip0_73_562)" filter="url(#filter0_d_73_562)">
<path d="M5.91211 15.6934L12.9697 22.7422C14.3145 24.0869 15.6943 24.0957 17.0215 22.7598L24.1055 15.6758C25.4414 14.3398 25.4326 12.96 24.0879 11.6152L17.0391 4.56641C15.6943 3.22168 14.3145 3.21289 12.9785 4.54883L5.89453 11.6328C4.55859 12.9688 4.57617 14.3486 5.91211 15.6934ZM14.0244 17.9961C13.6816 17.9961 13.418 17.8467 13.1719 17.5303L11.0186 14.9111C10.8604 14.7178 10.7812 14.5068 10.7812 14.2871C10.7812 13.8389 11.1328 13.4697 11.5811 13.4697C11.8535 13.4697 12.0732 13.5752 12.293 13.8564L13.9893 16.0098L17.6279 10.1914C17.8125 9.88379 18.0586 9.73438 18.3398 9.73438C18.7705 9.73438 19.1748 10.042 19.1748 10.499C19.1748 10.7012 19.0693 10.9209 18.9463 11.1143L14.833 17.5303C14.6309 17.8291 14.3496 17.9961 14.0244 17.9961Z" fill="#1C1C1E"/>
</g>
<defs>
<filter id="filter0_d_73_562" x="-3" y="0" width="36" height="36" filterUnits="userSpaceOnUse" color-interpolation-filters="sRGB">
<feFlood flood-opacity="0" result="BackgroundImageFix"/>
<feColorMatrix in="SourceAlpha" type="matrix" values="0 0 0 0 0 0 0 0 0 0 0 0 0 0 0 0 0 0 127 0" result="hardAlpha"/>
<feOffset dy="4"/>
<feGaussianBlur stdDeviation="2"/>
<feComposite in2="hardAlpha" operator="out"/>
<feColorMatrix type="matrix" values="0 0 0 0 0 0 0 0 0 0 0 0 0 0 0 0 0 0 0.25 0"/>
<feBlend mode="normal" in2="BackgroundImageFix" result="effect1_dropShadow_73_562"/>
<feBlend mode="normal" in="SourceGraphic" in2="effect1_dropShadow_73_562" result="shape"/>
</filter>
<clipPath id="clip0_73_562">
<rect width="28" height="28" fill="white" transform="translate(1)"/>
</clipPath>
</defs>
</svg>
