<svg width="28" height="28" viewBox="0 0 28 28" fill="none" xmlns="http://www.w3.org/2000/svg">
<g clip-path="url(#clip0_73_564)">
<path d="M4.91211 15.6934L11.9697 22.7422C13.3145 24.0869 14.6943 24.0957 16.0215 22.7598L23.1055 15.6758C24.4414 14.3398 24.4326 12.96 23.0879 11.6152L16.0391 4.56641C14.6943 3.22168 13.3145 3.21289 11.9785 4.54883L4.89453 11.6328C3.55859 12.9688 3.57617 14.3486 4.91211 15.6934ZM6.21289 14.5508C5.62402 13.9619 5.60645 13.3555 6.21289 12.749L13.0947 5.86719C13.71 5.26074 14.3076 5.26953 14.8965 5.8584L21.7871 12.7578C22.376 13.3467 22.3936 13.9531 21.7871 14.5596L14.9053 21.4414C14.2988 22.0479 13.6836 22.0303 13.1035 21.4502L6.21289 14.5508ZM13.0596 17.8291C13.376 17.8291 13.6484 17.6709 13.833 17.3896L17.7617 11.2461C17.876 11.0615 17.9814 10.8506 17.9814 10.6484C17.9814 10.2178 17.5947 9.92773 17.1816 9.92773C16.918 9.92773 16.6807 10.0684 16.4961 10.3672L13.0244 15.9395L11.3896 13.8564C11.1787 13.584 10.9678 13.4873 10.7041 13.4873C10.2734 13.4873 9.93945 13.8301 9.93945 14.2695C9.93945 14.4805 10.0186 14.6738 10.168 14.8584L12.2422 17.3896C12.4795 17.6973 12.7344 17.8291 13.0596 17.8291Z" fill="#1C1C1E"/>
</g>
<defs>
<clipPath id="clip0_73_564">
<rect width="28" height="28" fill="white"/>
</clipPath>
</defs>
</svg>
