<svg width="28" height="28" viewBox="0 0 28 28" fill="none" xmlns="http://www.w3.org/2000/svg">
<g clip-path="url(#clip0_73_560)">
<path d="M13.9385 22.584C14.0967 22.584 14.3252 22.5225 14.5537 22.4082C19.5811 19.8154 21.2422 18.4531 21.2422 15.3066V8.75879C21.2422 7.73926 20.8467 7.37012 19.9854 7.00977C19.0273 6.61426 15.7842 5.46289 14.8438 5.14648C14.5625 5.05859 14.2373 4.99707 13.9385 4.99707C13.6484 4.99707 13.3232 5.06738 13.042 5.14648C12.0928 5.44531 8.8584 6.61426 7.90039 7.00977C7.03906 7.36133 6.64355 7.73926 6.64355 8.75879V15.3066C6.64355 18.4531 8.375 19.6924 13.332 22.4082C13.5605 22.5312 13.7891 22.584 13.9385 22.584ZM12.9629 17.75C12.6289 17.75 12.3652 17.6094 12.1104 17.2842L9.95703 14.665C9.79883 14.4717 9.71973 14.2607 9.71973 14.041C9.71973 13.5928 10.0801 13.2236 10.5283 13.2236C10.8008 13.2236 11.0117 13.3291 11.2402 13.6104L12.9365 15.7637L16.5664 9.94531C16.7598 9.64648 17.0059 9.48828 17.2783 9.48828C17.7178 9.48828 18.1221 9.7959 18.1221 10.2529C18.1221 10.4551 18.0166 10.6748 17.8936 10.8682L13.7715 17.2842C13.5781 17.583 13.2969 17.75 12.9629 17.75Z" fill="#1C1C1E"/>
</g>
<defs>
<clipPath id="clip0_73_560">
<rect width="28" height="28" fill="white"/>
</clipPath>
</defs>
</svg>
