<svg width="24" height="21" viewBox="0 0 24 21" fill="none" xmlns="http://www.w3.org/2000/svg">
<path d="M16.27 5.72901C17.5087 5.72901 18.5687 4.931 18.9618 3.83519H23.0828C23.5712 3.83519 24 3.40644 24 2.87045C24 2.33446 23.5712 1.9176 23.0828 1.9176H18.9737C18.5687 0.809899 17.5087 0 16.27 0C15.0312 0 13.9712 0.809899 13.5781 1.9176H0.964744C0.428758 1.9176 0 2.33446 0 2.87045C0 3.40644 0.428758 3.83519 0.964744 3.83519H13.5781C13.9712 4.931 15.0312 5.72901 16.27 5.72901ZM16.27 4.264C15.4958 4.264 14.8764 3.64462 14.8764 2.85851C14.8764 2.07244 15.4958 1.465 16.27 1.465C17.0561 1.465 17.6635 2.07244 17.6635 2.85851C17.6635 3.64462 17.0561 4.264 16.27 4.264ZM0.917076 9.18311C0.428758 9.18311 0 9.61187 0 10.1479C0 10.6838 0.428758 11.1007 0.917076 11.1007H5.16924C5.56227 12.2203 6.6223 13.0183 7.86101 13.0183C9.11166 13.0183 10.1717 12.2203 10.5647 11.1007H23.0353C23.5712 11.1007 24 10.6838 24 10.1479C24 9.61187 23.5712 9.18311 23.0353 9.18311H10.5647C10.1598 8.08731 9.09972 7.2893 7.86101 7.2893C6.63419 7.2893 5.57416 8.08731 5.16924 9.18311H0.917076ZM7.86101 11.5414C7.08684 11.5414 6.46746 10.9221 6.46746 10.1479C6.46746 9.36174 7.08684 8.7543 7.86101 8.7543C8.65902 8.7543 9.25457 9.36174 9.25457 10.1479C9.25457 10.9221 8.65902 11.5414 7.86101 11.5414ZM16.27 20.2838C17.5087 20.2838 18.5687 19.4858 18.9618 18.3781H23.0828C23.5712 18.3781 24 17.9613 24 17.4253C24 16.8893 23.5712 16.4605 23.0828 16.4605H18.9618C18.5687 15.3528 17.5087 14.5667 16.27 14.5667C15.0312 14.5667 13.9712 15.3528 13.5781 16.4605H0.964744C0.428758 16.4605 0 16.8893 0 17.4253C0 17.9613 0.428758 18.3781 0.964744 18.3781H13.5781C13.9712 19.4858 15.0312 20.2838 16.27 20.2838ZM16.27 18.8188C15.4958 18.8188 14.8764 18.1995 14.8764 17.4253C14.8764 16.6273 15.4958 16.0317 16.27 16.0317C17.0561 16.0317 17.6635 16.6273 17.6635 17.4253C17.6635 18.1995 17.0561 18.8188 16.27 18.8188Z" fill="#3C3633"/>
</svg>
