<svg width="28" height="28" viewBox="0 0 28 28" fill="none" xmlns="http://www.w3.org/2000/svg">
<path d="M3 13.7347C3 14.1841 3.35159 14.573 3.91415 14.573C4.18663 14.573 4.43275 14.4261 4.65249 14.2532L13.372 7.0546C13.6182 6.84719 13.8994 6.84719 14.1455 7.0546L22.8563 14.2532C23.0673 14.4261 23.3134 14.573 23.5859 14.573C24.1045 14.573 24.5 14.2532 24.5 13.752C24.5 13.4582 24.3857 13.2249 24.1572 13.0347L21.6872 10.9953V7.40027C21.6872 7.01139 21.4323 6.76941 21.0368 6.76941H19.8238C19.437 6.76941 19.1733 7.01139 19.1733 7.40027V8.91259L15.0069 5.47314C14.2422 4.84229 13.2753 4.84229 12.5106 5.47314L3.35159 13.0347C3.11427 13.2249 3 13.4841 3 13.7347ZM5.8567 21.5037C5.8567 22.7482 6.64779 23.5 7.95748 23.5H19.5513C20.8522 23.5 21.6521 22.7482 21.6521 21.5037V14.9359L14.295 8.87802C13.9522 8.5842 13.539 8.59284 13.205 8.87802L5.8567 14.9359V21.5037ZM16.0617 21.8753H11.4471V16.3446C11.4471 15.9384 11.7195 15.6791 12.1327 15.6791H15.3849C15.798 15.6791 16.0617 15.9384 16.0617 16.3446V21.8753Z" fill="#1C1C1E"/>
</svg>
