<svg width="28" height="28" viewBox="0 0 28 28" fill="none" xmlns="http://www.w3.org/2000/svg">
<g clip-path="url(#clip0_73_554)">
<path d="M13.9385 22.8125C14.0967 22.8125 14.334 22.751 14.5625 22.6279C19.6074 19.877 21.3652 18.6113 21.3652 15.4121V8.75879C21.3652 7.72168 20.9609 7.35254 20.0908 6.9834C19.1152 6.57031 15.8193 5.41016 14.8525 5.09375C14.5713 4.99707 14.2373 4.93555 13.9385 4.93555C13.6484 4.93555 13.3145 5.01465 13.0244 5.09375C12.0664 5.35742 8.77051 6.5791 7.79492 6.9834C6.9248 7.34375 6.52051 7.72168 6.52051 8.75879V15.4121C6.52051 18.6113 8.27832 19.8682 13.3232 22.6279C13.5518 22.751 13.7891 22.8125 13.9385 22.8125ZM13.9385 20.9668C13.8154 20.9668 13.6836 20.9229 13.4375 20.7646C9.41211 18.3213 8.16406 17.6533 8.16406 15.0781V9.04004C8.16406 8.73242 8.23438 8.60938 8.47168 8.5127C9.77246 7.98535 12.3037 7.15039 13.4814 6.68457C13.6748 6.61426 13.8154 6.58789 13.9385 6.58789C14.0703 6.58789 14.2021 6.61426 14.3955 6.68457C15.582 7.15039 18.0869 8.03809 19.4053 8.5127C19.6514 8.60059 19.7129 8.73242 19.7129 9.04004V15.0781C19.7129 17.6709 18.4209 18.374 14.4482 20.7646C14.1934 20.9229 14.0703 20.9668 13.9385 20.9668ZM11.0557 17.0996C11.2842 17.0996 11.4775 17.0205 11.627 16.8623L13.9473 14.542L16.2676 16.8623C16.417 17.0117 16.6104 17.0996 16.8389 17.0996C17.2871 17.0996 17.6387 16.748 17.6387 16.3086C17.6387 16.0889 17.5508 15.9043 17.3926 15.7461L15.0723 13.4258L17.4014 11.0791C17.5596 10.9209 17.6387 10.7451 17.6387 10.5342C17.6387 10.0859 17.2871 9.74316 16.8477 9.74316C16.6279 9.74316 16.4521 9.81348 16.2939 9.98047L13.9473 12.3096L11.6094 9.98926C11.46 9.83105 11.2842 9.75195 11.0557 9.75195C10.6074 9.75195 10.2646 10.0947 10.2646 10.5342C10.2646 10.7451 10.3438 10.9385 10.502 11.0879L12.8223 13.4258L10.502 15.7549C10.3438 15.9043 10.2646 16.0977 10.2646 16.3086C10.2646 16.748 10.6074 17.0996 11.0557 17.0996Z" fill="#1C1C1E"/>
</g>
<defs>
<clipPath id="clip0_73_554">
<rect width="28" height="28" fill="white"/>
</clipPath>
</defs>
</svg>
