<svg width="28" height="28" viewBox="0 0 28 28" fill="none" xmlns="http://www.w3.org/2000/svg">
<g clip-path="url(#clip0_73_556)">
<path d="M13.9385 22.584C14.0967 22.584 14.3252 22.5225 14.5537 22.4082C19.5811 19.8154 21.2422 18.4531 21.2422 15.3066V8.75879C21.2422 7.73926 20.8467 7.37012 19.9854 7.00977C19.0273 6.61426 15.7842 5.46289 14.8438 5.14648C14.5625 5.05859 14.2373 4.99707 13.9385 4.99707C13.6484 4.99707 13.3232 5.06738 13.042 5.14648C12.0928 5.44531 8.8584 6.61426 7.90039 7.00977C7.03906 7.36133 6.64355 7.73926 6.64355 8.75879V15.3066C6.64355 18.4531 8.375 19.6924 13.332 22.4082C13.5605 22.5312 13.7891 22.584 13.9385 22.584ZM11.0557 17.1348C10.5986 17.1348 10.2295 16.7656 10.2295 16.2998C10.2295 16.0801 10.3174 15.8779 10.4756 15.7197L12.7695 13.4258L10.4756 11.123C10.3174 10.9648 10.2295 10.7627 10.2295 10.543C10.2295 10.0771 10.5986 9.72559 11.0557 9.72559C11.293 9.72559 11.4775 9.80469 11.6445 9.96289L13.9473 12.2568L16.2588 9.9541C16.4346 9.78711 16.6191 9.70801 16.8477 9.70801C17.3047 9.70801 17.6738 10.0684 17.6738 10.5342C17.6738 10.7539 17.6035 10.9473 17.4277 11.1143L15.125 13.4258L17.4189 15.7109C17.5859 15.8691 17.665 16.0713 17.665 16.2998C17.665 16.7656 17.2959 17.1348 16.8301 17.1348C16.5928 17.1348 16.3906 17.0469 16.2324 16.8887L13.9473 14.5947L11.6621 16.8887C11.5039 17.0469 11.293 17.1348 11.0557 17.1348Z" fill="#1C1C1E"/>
</g>
<defs>
<clipPath id="clip0_73_556">
<rect width="28" height="28" fill="white"/>
</clipPath>
</defs>
</svg>
